<svg width="79" height="69" viewBox="0 0 79 69" fill="none" xmlns="http://www.w3.org/2000/svg">
<path d="M21.0844 42.5127V22.4587L38.389 32.4857V52.7015L21.0844 42.5127Z" fill="#102227" stroke="#78B7C7"/>
<path d="M40.6515 32.6464V52.7004L57.9561 42.6734V22.4577L40.6515 32.6464Z" fill="#0B181D" stroke="#78B7C7"/>
<path d="M56.8517 20.1079L39.3854 30.2157L22 20.1079L39.3854 10L56.8517 20.1079Z" fill="#17292E" stroke="#78B7C7"/>
<path d="M63.8581 15.8275L39.5185 2L15.1789 16.07L19.788 18.4959L39.5185 7.25605L59.3298 18.4959L63.8581 15.8275Z" fill="#17292E" stroke="#78B7C7"/>
<path d="M40.6997 60.1364L64.8387 45.9616L64.8121 17.8478L60.4078 20.6284L60.2858 43.3354L40.6508 54.8806L40.6997 60.1364Z" fill="#0B181D" fill-opacity="0.85" stroke="#78B7C7"/>
<path d="M38.3003 60.1364L14.1613 45.9616L14.1879 17.8478L18.5922 20.6284L18.7142 43.3354L38.3492 54.8806L38.3003 60.1364Z" fill="#102227" fill-opacity="0.9" stroke="#78B7C7"/>
</svg>
